<?xml version="1.0" encoding="utf-8"?>
<!-- Generator: Adobe Illustrator 27.1.1, SVG Export Plug-In . SVG Version: 6.00 Build 0)  -->
<svg version="1.1" id="Calque_1" xmlns="http://www.w3.org/2000/svg" xmlns:xlink="http://www.w3.org/1999/xlink" x="0px" y="0px"
	 viewBox="0 0 850.4 804.5" style="enable-background:new 0 0 850.4 804.5;" xml:space="preserve">
<style type="text/css">
	.st0{fill:#070809;}
	.st1{fill:#E6CF2B;}
	.st2{fill:#C22923;}
	.st3{fill:none;}
	.st4{font-family:'Arial-Black';}
	.st5{font-size:46.6168px;}
	.st6{font-size:46px;}
</style>
<rect class="st0" width="850.4" height="804.5"/>
<g>
	<path class="st1" d="M123.2,78.1h128.1c25.3,0,45.7,3,61.2,9.1c15.5,6.1,28.4,14.8,38.6,26.1s17.5,24.6,22.1,39.6
		c4.6,15.1,6.9,31,6.9,47.9c0,26.4-3.4,46.9-10.2,61.4c-6.8,14.6-16.2,26.7-28.3,36.6s-25,16.4-38.8,19.6c-18.9,4.5-36,6.7-51.4,6.7
		H123.2V78.1z M209.4,134v135h21.1c18,0,30.8-1.8,38.5-5.3s13.6-9.7,17.9-18.5s6.5-23.1,6.5-42.9c0-26.2-4.8-44.1-14.5-53.8
		c-9.6-9.7-25.6-14.5-48-14.5H209.4z"/>
	<path class="st1" d="M426.5,325.2V78.1h143.7c26.7,0,47,2,61.1,6.1c14.1,4,25.4,11.5,34.1,22.5s12.9,24.3,12.9,40
		c0,13.7-3.3,25.5-9.9,35.5c-6.6,9.9-15.7,18-27.2,24.2c-7.4,3.9-17.5,7.2-30.3,9.8c10.3,3,17.8,6.1,22.5,9.1c3.2,2,7.8,6.4,13.8,13
		c6,6.6,10.1,11.8,12.1,15.4l41.8,71.6h-97.5l-46.1-75.5c-5.8-9.8-11-16.1-15.6-19c-6.2-3.8-13.3-5.7-21.1-5.7h-7.6v100.3H426.5z
		 M513.1,178.2h36.4c3.9,0,11.6-1.1,22.8-3.4c5.7-1,10.4-3.6,14-7.8c3.6-4.2,5.4-8.9,5.4-14.3c0-8-2.9-14.1-8.6-18.4
		c-5.7-4.3-16.4-6.4-32.2-6.4h-37.9V178.2z"/>
	<path class="st2" d="M125.2,356.5h80.5l105.1,136.7V356.5h81.3v247.1h-81.3L206.3,467.9v135.7h-81.1V356.5z"/>
	<path class="st2" d="M438.6,480.2c0-40.3,12.7-71.7,38.1-94.2c25.4-22.5,60.7-33.7,106-33.7c46.5,0,82.3,11,107.4,33.1
		s37.7,53,37.7,92.8c0,28.9-5.5,52.6-16.5,71s-26.8,32.9-47.6,43.1c-20.8,10.3-46.6,15.4-77.6,15.4c-31.5,0-57.5-4.4-78.2-13.3
		c-20.6-8.9-37.3-22.9-50.2-42.1C445,533.1,438.6,509.1,438.6,480.2z M524.8,480.5c0,24.9,5.2,42.9,15.7,53.8
		c10.5,10.9,24.7,16.3,42.7,16.3c18.5,0,32.9-5.3,43-16c10.2-10.7,15.2-29.8,15.2-57.5c0-23.3-5.3-40.3-15.9-51s-25-16.1-43.1-16.1
		c-17.4,0-31.4,5.4-41.9,16.3S524.8,455.4,524.8,480.5z"/>
</g>
<circle class="st1" cx="759.5" cy="280.3" r="44.9"/>
<rect x="125.2" y="659.9" class="st3" width="461.2" height="74.5"/>
<text transform="matrix(1 0 0 1 125.1763 693.2672)"><tspan x="0" y="0" class="st2 st4 st5">TERENCE YO</tspan><tspan x="336.7" y="0" class="st2 st4 st6">UN</tspan><tspan x="413.3" y="0" class="st2 st4 st5">G</tspan></text>
</svg>
