<?xml version="1.0" encoding="utf-8"?>
<!-- Generator: Adobe Illustrator 27.1.1, SVG Export Plug-In . SVG Version: 6.00 Build 0)  -->
<svg version="1.1" id="Calque_1" xmlns="http://www.w3.org/2000/svg" xmlns:xlink="http://www.w3.org/1999/xlink" x="0px" y="0px"
	 viewBox="0 0 975 1289.6" style="enable-background:new 0 0 975 1289.6;" xml:space="preserve">
<style type="text/css">
	.st0{fill:#040504;}
	.st1{fill:none;}
	.st2{fill:#E7CF2C;}
	.st3{fill:#C52F30;}
	.st4{fill:#C52F2F;}
	.st5{fill:#FFFFFF;}
	.st6{font-family:'MyriadPro-Regular';}
	.st7{font-size:35px;}
</style>
<rect x="0" class="st0" width="975" height="1289.6"/>
<rect x="13" y="928.8" class="st1" width="2.8" height="0"/>
<ellipse class="st2" cx="15.1" cy="1062.3" rx="15.1" ry="15.1"/>
<ellipse class="st2" cx="15.1" cy="1104.3" rx="15.1" ry="15.1"/>
<ellipse class="st3" cx="54.3" cy="1215.3" rx="16.2" ry="16.3"/>
<ellipse class="st4" cx="54.3" cy="1266.5" rx="16.2" ry="16.3"/>
<ellipse class="st3" cx="54.3" cy="1170" rx="16.2" ry="16.3"/>
<ellipse class="st4" cx="102" cy="1266.5" rx="16.2" ry="16.3"/>
<ellipse class="st4" cx="147.3" cy="1266.5" rx="16.2" ry="16.3"/>
<ellipse class="st2" cx="771.6" cy="39" rx="18.4" ry="18.4"/>
<ellipse class="st2" cx="771.3" cy="89.3" rx="18.1" ry="18.1"/>
<ellipse class="st2" cx="926.4" cy="89.3" rx="18" ry="18"/>
<ellipse class="st2" cx="877.6" cy="89.3" rx="18.1" ry="18.1"/>
<ellipse class="st2" cx="820.9" cy="89.3" rx="18.1" ry="18.1"/>
<ellipse class="st2" cx="926.4" cy="134.6" rx="18" ry="18"/>
<ellipse class="st2" cx="926.4" cy="184.4" rx="18" ry="18"/>
<ellipse class="st4" cx="834.4" cy="1266.5" rx="16.2" ry="16.3"/>
<ellipse class="st4" cx="879.6" cy="1266.5" rx="16.2" ry="16.3"/>
<ellipse class="st4" cx="102" cy="77" rx="16.2" ry="16.3"/>
<ellipse class="st4" cx="147.3" cy="77" rx="16.2" ry="16.3"/>
<ellipse class="st2" cx="70.7" cy="24.3" rx="15.1" ry="15.1"/>
<ellipse class="st2" cx="924.1" cy="1224.6" rx="15.1" ry="15.1"/>
<ellipse class="st2" cx="924.1" cy="1266.7" rx="15.1" ry="15.1"/>
<image style="overflow:visible;" width="886" height="1200" xlink:href="../../../../Desktop/dr-no-film-poster.jpg"  transform="matrix(0.9143 0 0 0.9161 85.7984 121.8487)">
</image>
<rect x="328.2" y="1248.6" class="st1" width="370.4" height="44.4"/>
<text transform="matrix(0.9981 0 0 1 328.1753 1273.4645)" class="st5 st6 st7">DR. NO affiche ( 1962 )</text>
</svg>
