<?xml version="1.0" encoding="utf-8"?>
<!-- Generator: Adobe Illustrator 27.1.1, SVG Export Plug-In . SVG Version: 6.00 Build 0)  -->
<svg version="1.1" id="Calque_1" xmlns="http://www.w3.org/2000/svg" xmlns:xlink="http://www.w3.org/1999/xlink" x="0px" y="0px"
	 viewBox="0 0 841.9 210.5" style="enable-background:new 0 0 841.9 210.5;" xml:space="preserve">
<style type="text/css">
	.st0{fill:#E8CF2C;}
	.st1{fill:#E7CF2C;}
</style>
<g id="Calque_2">
	<rect x="0.3" y="1.4" class="st0" width="838.7" height="208.6"/>
	<rect y="0" width="202.8" height="211.4"/>
</g>
<path d="M0,210.5C0,140.3,0,70.2,0,0c280.6,0,561.3,0,841.9,0c0,70.2,0,140.3,0,210.5C561.3,210.5,280.6,210.5,0,210.5z M105,42.1
	c-34.8,0.1-63,28.5-62.9,63.3c0.1,34.7,28.5,63,63.3,62.9c34.8-0.1,63-28.5,62.9-63.3C168.3,70.3,139.8,42,105,42.1z M512.1,105
	c0-18-0.1-35.9,0-53.9c0-5.1-0.6-9.2-7.2-9.1c-6.3,0.1-6.8,4-6.8,8.9c0.1,36.1,0.1,72.3,0,108.4c0,5.1,0.6,9.2,7.2,9.1
	c6.3-0.1,6.8-4,6.8-8.9C512,141.4,512.1,123.2,512.1,105z M236.7,104.6c0,16,0.1,32-0.1,48c0,5.1,1.1,8.5,7.2,8.4c5.7-0.1,7-3.2,7-8
	c0-31.8,0-63.5,0-95.3c0-4.8-1.3-8-7-8.1c-6.1-0.1-7.3,3.2-7.2,8.4C236.8,73.5,236.7,89,236.7,104.6z M276.9,105.7c0-16,0-32,0-48
	c0-4.7-1-8.1-6.8-8.2c-6-0.1-7.3,3.1-7.3,8.3c0.1,31.5,0.1,63.1,0,94.6c0,5,0.9,8.5,7.1,8.5c6.3,0,7-3.7,7-8.6
	C276.8,136.8,276.9,121.2,276.9,105.7z M472,104.6c0,16,0.1,32-0.1,47.9c0,5.1,1.1,8.5,7.2,8.4c5.7,0,6.9-3.3,6.9-8.1
	c0-31.7,0-63.5,0-95.2c0-4.7-1.1-8.1-6.9-8.1c-6.1-0.1-7.3,3.2-7.2,8.4C472.1,73.5,472,89,472,104.6z M329.1,105.9
	c0-16-0.1-32,0-47.9c0-5.1-1-8.5-7.1-8.5c-5.8,0-7,3.3-7,8c0,31.7,0,63.5,0,95.2c0,5.2,1.6,8.3,7.5,8.1c5.9-0.2,6.6-3.7,6.5-8.4
	C329,137,329.1,121.5,329.1,105.9z M564.4,105.9c0-13.8-0.1-27.5,0-41.3c0-4.6-1.3-7.6-6.5-7.8c-5.2-0.2-7.7,2.2-7.7,7.4
	c0,27.3,0,54.7,0,82c0,5.2,2.4,7.6,7.6,7.5c5.2-0.1,6.6-3.1,6.6-7.8C564.3,132.6,564.4,119.3,564.4,105.9z M445.9,105.2
	c0,11.2,0.1,22.3,0,33.5c0,4.7,1.5,7.5,6.7,7.6c5.4,0.1,7.5-2.4,7.5-7.5c0-22.3,0-44.6,0-66.9c0-5.1-2-7.7-7.4-7.6
	c-5.1,0.1-6.8,2.8-6.8,7.5C445.9,82.9,445.9,94,445.9,105.2z M773.6,105.3c0-11.1-0.1-22.3,0-33.4c0.1-4.7-1.5-7.5-6.7-7.6
	c-5.4-0.2-7.5,2.5-7.5,7.5c0,22.3,0,44.6,0,66.9c0,5,2,7.8,7.4,7.6c5.6-0.1,6.8-3.4,6.8-8.2C773.5,127.1,773.6,116.2,773.6,105.3z
	 M747.4,105.7c0-11.1-0.1-22.3,0-33.4c0.1-4.8-1.1-8.1-6.8-8.1c-5.5-0.1-7.2,2.8-7.2,7.8c0.1,22.3,0.1,44.6,0,66.9
	c0,5.2,2.2,7.6,7.5,7.5c5.3-0.2,6.5-3.2,6.5-7.8C747.3,127.6,747.4,116.7,747.4,105.7z M655,105.2c0,8.8,0.1,17.5-0.1,26.3
	c-0.1,4.9,2,7.4,6.9,7.5c4.8,0.1,7.3-2.3,7.3-7.2c0-17.7,0-35.4,0-53.2c0-4.9-2.5-7.3-7.3-7.2c-4.9,0.1-7,2.6-6.9,7.5
	C655.2,87.7,655,96.5,655,105.2z M419.6,105.1c0,9,0.1,17.9,0,26.9c0,4.7,2.3,6.9,6.7,7c4.7,0.1,7.5-2,7.5-7c0-17.7,0-35.4,0-53.2
	c0-4.9-2.4-7.4-7.2-7.4c-4.8,0-7.2,2.4-7.1,7.3C419.7,87.6,419.6,96.3,419.6,105.1z M355.3,105.2c0-6.4-0.1-12.7,0-19.1
	c0.1-4.4-1.5-7.1-6.3-7.3c-4.8-0.2-7.7,1.6-7.8,6.6c-0.1,13.1-0.1,26.3,0,39.4c0,5,3,6.8,7.8,6.6c4.8-0.2,6.4-2.8,6.4-7.3
	C355.2,117.9,355.3,111.6,355.3,105.2z M302.9,105.2c0-6.6,0-13.1,0-19.7c0-4.6-2.3-6.7-6.9-6.7c-4.6,0-6.9,2-6.9,6.7
	c0,13.1,0,26.2,0,39.3c0,4.6,2.4,6.7,7,6.7c4.6,0,6.9-2,6.9-6.7C302.9,118.3,302.9,111.8,302.9,105.2z M616.8,105.5
	c0-4.2,0-8.3,0-12.5c0-4.6-2.5-6.6-7-6.6c-4.5,0-7.2,1.7-7.2,6.4c0,8.1,0,16.2,0,24.3c0,5,2.5,7,7.4,7c4.7,0,6.9-2.2,6.9-6.8
	C616.9,113.4,616.8,109.4,616.8,105.5z M628.8,105.1c0,4.2,0,8.3,0,12.5c0,4.3,2.1,6.3,6.4,6.5c4.3,0.1,7.6-1.1,7.7-5.9
	c0.2-8.5,0.2-17.1,0-25.6c-0.1-4.8-3.1-6.2-7.5-6.2c-4.2,0.1-6.6,1.9-6.7,6.2C628.8,96.8,628.8,101,628.8,105.1z M681.2,104.7
	c0,4.1,0.1,8.3,0,12.4c-0.1,4.6,1.9,6.8,6.6,6.9c4.9,0.1,7.4-1.9,7.4-6.9c0-7.9,0-15.7,0-23.6c0-4.8-1.9-7.3-7-7.3
	c-5,0-7.2,2.3-7,7.2C681.3,97.3,681.2,101,681.2,104.7z M210.5,105.3c0.6,4-2.1,10.3,5.4,11.5c4.6,0.7,8.1-0.6,8.8-6.1
	c1.4-12-0.3-16.6-6.5-17C212,93.2,210.5,95.4,210.5,105.3z M381.5,104.8c-0.4-4.2,1.8-10.3-5.9-11.2c-4.4-0.5-8.1,0.8-8.3,6
	c-0.3,12-1.1,16.1,5.5,17.2C379.4,117.9,381.5,115.1,381.5,104.8z M590.6,104.8c-0.5-4,1.8-9.9-5.2-11.1c-4.5-0.8-8.7,0.3-8.9,5.9
	c-0.3,12-1.2,16.5,6.2,17.2C589,117.4,590.6,115,590.6,104.8z M799.7,105.8c0-2.4,0.8-5.3-0.2-7.1c-1.3-2.2-4.1-4.7-6.3-4.8
	c-2.3-0.1-6.5,2.1-6.9,3.9c-1,4.8-0.7,9.9-0.1,14.8c0.2,1.5,2.7,3.4,4.5,3.9C797.2,118.3,799.8,115.1,799.7,105.8z M393.4,105.9
	c0.3,3.9-1.5,9.4,4.9,10.8c4.3,0.9,8.9,0.3,9.2-5.4c0.5-12.3,1.3-17.1-6.4-17.6C394.9,93.3,393.4,95.5,393.4,105.9z M538.2,105.4
	c0-9.5-0.8-11.2-5.7-11.7c-4.4-0.4-7.7,0.7-8.3,5.9c-1.4,11.4,0.1,16.4,5.5,17.2C536.3,117.8,538.2,115.2,538.2,105.4z M721.3,104.5
	c-0.5-4,1.8-9.9-5.6-10.8c-4.7-0.6-8,0.8-8.4,6.5c-0.8,13.2,0.4,16.6,6.9,16.6C720.1,116.9,721.3,115,721.3,104.5z"/>
<path class="st0" d="M512.1,104.7c0,18.1,0,36.2,0,54.3c0,4.8-0.5,8.7-6.8,8.8c-6.6,0.1-7.2-4-7.2-9.1c0.1-36,0.1-72,0-108
	c0-4.8,0.5-8.7,6.8-8.8c6.6-0.1,7.2,4,7.2,9.1C512,68.9,512.1,86.8,512.1,104.7z"/>
<path class="st0" d="M236.7,104.2c0-15.5,0.1-31-0.1-46.5c0-5.1,1.2-8.4,7.2-8.4c5.7,0.1,7,3.3,7,8.1c0,31.7,0,63.3,0,95
	c0,4.8-1.4,8-7,8c-6.1,0.1-7.2-3.3-7.2-8.4C236.8,136.1,236.7,120.2,236.7,104.2z"/>
<path class="st0" d="M276.9,105.3c0,15.5,0,31,0,46.5c0,4.9-0.7,8.6-7,8.6c-6.2,0-7.1-3.4-7.1-8.5c0.1-31.4,0.1-62.9,0-94.3
	c0-5.2,1.2-8.4,7.3-8.3c5.8,0.1,6.8,3.5,6.8,8.1C276.9,73.5,276.9,89.4,276.9,105.3z"/>
<path class="st0" d="M472,104.2c0-15.5,0.1-31-0.1-46.5c0-5.1,1.2-8.4,7.2-8.4c5.8,0.1,6.9,3.4,6.9,8.1c0,31.6,0,63.3,0,94.9
	c0,4.8-1.2,8-6.9,8c-6.1,0-7.2-3.3-7.2-8.4C472.1,136.1,472,120.2,472,104.2z"/>
<path class="st0" d="M329.1,105.6c0,15.5-0.1,31,0,46.5c0,4.6-0.6,8.2-6.5,8.3c-6,0.2-7.6-2.9-7.5-8.1c0.1-31.6,0-63.3,0-94.9
	c0-4.8,1.2-8,7-8c6.1,0,7.2,3.4,7.1,8.4C329,73.7,329.1,89.7,329.1,105.6z"/>
<path class="st0" d="M564.4,105.6c0,13.3-0.1,26.6,0,39.9c0,4.6-1.4,7.6-6.6,7.7c-5.2,0.1-7.6-2.3-7.6-7.5c0-27.2,0-54.5,0-81.7
	c0-5.2,2.5-7.6,7.7-7.4c5.2,0.2,6.5,3.2,6.5,7.8C564.3,78.1,564.4,91.9,564.4,105.6z"/>
<path class="st0" d="M445.9,104.9c0-11.1,0.1-22.2,0-33.3c0-4.7,1.6-7.4,6.8-7.5c5.4-0.1,7.4,2.5,7.4,7.6c0,22.2,0,44.5,0,66.7
	c0,5.1-2.1,7.7-7.5,7.5c-5.2-0.1-6.7-2.9-6.7-7.6C445.9,127.1,445.9,116,445.9,104.9z"/>
<path class="st0" d="M773.6,105c0,10.9-0.1,21.8,0,32.7c0.1,4.8-1.1,8-6.8,8.2c-5.4,0.1-7.4-2.6-7.4-7.6c0-22.2,0-44.4,0-66.7
	c0-5.1,2.2-7.7,7.5-7.5c5.1,0.2,6.7,2.9,6.7,7.6C773.5,82.7,773.6,93.8,773.6,105z"/>
<path class="st0" d="M747.4,105.4c0,10.9-0.1,21.8,0,32.7c0,4.6-1.2,7.6-6.5,7.7c-5.3,0.2-7.5-2.3-7.5-7.4c0.1-22.2,0-44.4,0-66.6
	c0-5,1.7-7.8,7.2-7.7c5.7,0.1,6.9,3.3,6.8,8.1C747.3,83.2,747.4,94.3,747.4,105.4z"/>
<path class="st0" d="M655,104.9c0-8.7,0.1-17.5-0.1-26.2c-0.1-4.9,2-7.4,6.9-7.5c4.8-0.1,7.3,2.3,7.3,7.1c0,17.7,0,35.3,0,53
	c0,4.9-2.5,7.2-7.3,7.2c-4.9-0.1-7-2.6-6.9-7.5C655.2,122.4,655,113.6,655,104.9z"/>
<path class="st0" d="M419.6,104.7c0-8.7,0.1-17.5,0-26.2c-0.1-5,2.3-7.3,7.1-7.3c4.8,0,7.2,2.5,7.2,7.3c0,17.7,0,35.3,0,53
	c0,5-2.8,7.1-7.5,7c-4.4-0.1-6.8-2.3-6.7-7C419.7,122.6,419.6,113.7,419.6,104.7z"/>
<path class="st0" d="M355.3,104.9c0,6.3-0.1,12.7,0,19c0.1,4.4-1.6,7-6.4,7.3c-4.8,0.2-7.7-1.6-7.8-6.6c-0.1-13.1-0.1-26.2,0-39.3
	c0-5,3-6.8,7.8-6.6c4.8,0.2,6.4,2.8,6.3,7.3C355.2,92.2,355.3,98.6,355.3,104.9z"/>
<path class="st0" d="M302.9,104.9c0,6.5,0,13.1,0,19.6c0,4.6-2.3,6.7-6.9,6.7c-4.6,0-6.9-2-7-6.6c0-13.1,0-26.1,0-39.2
	c0-4.6,2.3-6.7,6.9-6.7c4.6,0,6.9,2,6.9,6.6C302.9,91.8,302.9,98.4,302.9,104.9z"/>
<path class="st0" d="M616.8,105.2c0,3.9,0,7.8,0,11.8c0,4.5-2.2,6.7-6.9,6.8c-4.9,0-7.4-1.9-7.4-6.9c0-8.1,0-16.1,0-24.2
	c0-4.7,2.7-6.4,7.2-6.4c4.6,0,7,2,7,6.6C616.9,96.9,616.8,101,616.8,105.2z"/>
<path class="st0" d="M628.8,104.8c0-4.1,0-8.3,0-12.4c0-4.4,2.4-6.1,6.7-6.2c4.4-0.1,7.4,1.4,7.5,6.1c0.1,8.5,0.2,17,0,25.5
	c-0.1,4.8-3.4,6-7.7,5.9c-4.3-0.1-6.4-2.2-6.4-6.5C628.8,113.1,628.8,108.9,628.8,104.8z"/>
<path class="st0" d="M681.2,104.4c0-3.7,0.1-7.4,0-11.1c-0.2-4.9,2-7.1,7-7.2c5.1,0,7,2.5,7,7.2c0,7.8,0,15.7,0,23.5
	c0,5-2.5,7-7.4,6.8c-4.7-0.1-6.7-2.3-6.6-6.9C681.3,112.7,681.2,108.5,681.2,104.4z"/>
<path class="st0" d="M210.5,104.9c0-9.8,1.5-12,7.7-11.6c6.2,0.4,7.9,5,6.5,16.9c-0.6,5.5-4.2,6.8-8.8,6.1
	C208.3,115.2,211.1,109,210.5,104.9z"/>
<path class="st0" d="M381.5,104.5c0,10.2-2,13-8.6,11.9c-6.6-1.1-5.9-5.2-5.5-17.1c0.1-5.1,3.9-6.4,8.3-5.9
	C383.3,94.3,381.1,100.3,381.5,104.5z"/>
<path class="st0" d="M590.6,104.5c0,10.1-1.6,12.6-7.9,12c-7.4-0.7-6.5-5.1-6.2-17.1c0.2-5.6,4.4-6.6,8.9-5.9
	C592.5,94.7,590.2,100.5,590.6,104.5z"/>
<path class="st0" d="M799.7,105.5c0.1,9.3-2.5,12.5-9,10.8c-1.8-0.5-4.3-2.4-4.5-3.9c-0.6-4.9-0.9-10,0.1-14.8
	c0.4-1.8,4.6-4,6.9-3.9c2.3,0.1,5,2.6,6.3,4.8C800.5,100.2,799.7,103.1,799.7,105.5z"/>
<path class="st0" d="M393.4,105.5c0-10.3,1.5-12.6,7.7-12.2c7.7,0.5,6.9,5.2,6.4,17.5c-0.2,5.7-4.8,6.3-9.2,5.4
	C391.9,114.9,393.8,109.4,393.4,105.5z"/>
<path class="st0" d="M538.2,105c0,9.8-2,12.4-8.5,11.4c-5.3-0.8-6.8-5.8-5.5-17.2c0.6-5.2,3.9-6.3,8.3-5.9
	C537.4,93.9,538.2,95.6,538.2,105z"/>
<path class="st0" d="M721.3,104.2c0,10.5-1.1,12.4-7,12.3c-6.5-0.1-7.8-3.4-6.9-16.6c0.4-5.7,3.7-7.1,8.4-6.5
	C723,94.3,720.8,100.2,721.3,104.2z"/>
<path class="st1" d="M44.9,92c3-3.6,6.6-8.9,9.4-15.9c1.7-4.3,2.7-8.2,3.3-11.5c44.3,0,88.5,0,132.8,0c0,1.5-0.1,3.1-0.3,4.9
	c-0.3,2.2-0.7,4.2-1.2,5.9c-0.5,1.4-1.2,3-2.2,4.7c-1.6,2.9-3.5,5.1-5.1,6.8c-19.3,0-38.6-0.1-57.9-0.1c-1.1,1.8-2.2,3.5-3.3,5.3
	C95.2,92,70.1,92,44.9,92z"/>
<path class="st1" d="M116.4,97.2c-1.6,2.4-3.3,4.9-4.9,7.3c-2.4,0-5.2,0.1-8.3,0.6c-2.8,0.4-5.2,1.1-7.3,1.7c-1,0.5-2.3,1.3-3.9,2.4
	c-2.6,1.9-4.2,3.8-5.8,5.7c-4.5,5.4-6.2,7.8-9.3,11.5c-2,2.4-3.9,4.5-5.3,6c-3,3.7-6.1,5.4-8,6.2c-4.1,1.8-7.8,1.8-14.5,1.8
	c-3.8,0-6.9-0.2-9-0.5c-4-0.4-7.4-0.4-9.7-0.2c-5.1,0.3-6.8,1.2-7.9,1.9c-1.8,1.1-3,2.5-3.6,3.5c-1.5-1.2-3.1-2.3-4.6-3.5
	c1.5-2,2.9-4,4.4-5.9c1.9,0.1,4.4,0.2,7.4,0.3c0,0,5.8,0.1,10.9-0.2c12.3-0.6,18.6-0.8,24.3-4.4c2.9-1.8,6-5.3,12.1-12.2
	c3.9-4.4,7-8.3,9.1-10.9c-9.7,0-19.3-0.1-29-0.1c-0.8,1-2.8,3.6-3.1,7.4c-0.5,5.4,2.3,9.2,3,10.1c-1.8-0.2-8.9-1.3-11-6.2
	c-0.4-1-0.5-1.8-0.7-3c-0.3-2.6-0.4-6.3,0.9-10.7c0-0.6,0.5-5.6,4.5-7.8c1.2-0.6,2.3-0.9,3.2-1C72.3,97.1,94.4,97.2,116.4,97.2z"/>
</svg>
